PathFileType	4	(X/Y/Z)	s09c0101.trc
DataRate	CameraRate	NumFrames	NumMarkers	Units	OrigDataRate	OrigDataStartFrame	OrigNumFrames
200	200	6	50	mm	200	250	2000
Frame#	Time	racr			lacr			c7			jug			rlel			rdr			llel			ldr			s2			lic			ric			lasi			rasi			rpsi			lpsi			rgt			lgt			rth1			rth2			rth3			rth4			rlfc			rmfc			rsh1			rsh2			rsh3			rsh4			rlmal			rmmal			rcal			rtoe			rmt5			lth1			lth2			lth4			lth3			llfc			lmfc			llmal			lmmal			lcal			lmt5			lsh1			lsh2			lsh3			lsh4			ltoe			SBIKE			LBIKE			RBIKE			
		X1	Y1	Z1	X2	Y2	Z2	X3	Y3	Z3	X4	Y4	Z4	X5	Y5	Z5	X6	Y6	Z6	X7	Y7	Z7	X8	Y8	Z8	X9	Y9	Z9	X10	Y10	Z10	X11	Y11	Z11	X12	Y12	Z12	X13	Y13	Z13	X14	Y14	Z14	X15	Y15	Z15	X16	Y16	Z16	X17	Y17	Z17	X18	Y18	Z18	X19	Y19	Z19	X20	Y20	Z20	X21	Y21	Z21	X22	Y22	Z22	X23	Y23	Z23	X24	Y24	Z24	X25	Y25	Z25	X26	Y26	Z26	X27	Y27	Z27	X28	Y28	Z28	X29	Y29	Z29	X30	Y30	Z30	X31	Y31	Z31	X32	Y32	Z32	X33	Y33	Z33	X34	Y34	Z34	X35	Y35	Z35	X36	Y36	Z36	X37	Y37	Z37	X38	Y38	Z38	X39	Y39	Z39	X40	Y40	Z40	X41	Y41	Z41	X42	Y42	Z42	X43	Y43	Z43	X44	Y44	Z44	X45	Y45	Z45	X46	Y46	Z46	X47	Y47	Z47	X48	Y48	Z48	X49	Y49	Z49	X50	Y50	Z50	
250	1.2500	480.005133	1303.228997	-92.437380	503.459473	1287.896722	-410.671077	455.391641	1327.292042	-253.307947	465.397260	1190.128086	-247.907470	514.017615	1060.415251	-5.547601	691.368872	876.261038	-53.688890	488.116025	1024.473639	-516.927087	683.315568	876.664064	-449.478327	-21.459796	1148.115620	-239.986700	120.031840	1113.891019	-382.997372	133.000165	1122.535688	-101.200615	139.209077	1045.410893	-364.264187	157.988982	1056.994978	-114.690808	18.868890	1174.447778	-183.811267	15.073780	1177.154803	-294.133002	76.506491	989.916124	-43.704030	60.093644	1003.840072	-433.200382	167.901632	884.296632	-50.242215	240.292986	836.304891	-58.406222	276.602988	755.616995	-65.366193	264.636118	856.398180	-76.522900	321.904526	666.593930	-100.363732	302.735406	654.454537	-196.110743	241.836887	601.164852	-70.126410	200.612939	522.348720	-84.400395	125.991524	475.902956	-83.752262	219.977994	509.331372	-116.719319	56.309767	404.436583	-84.353068	61.140786	414.609987	-164.278411	-33.177062	397.228499	-124.124671	213.160507	302.032552	-124.090598	129.580194	313.926245	-60.103568	169.625591	921.633066	-428.916258	251.972247	901.400460	-423.139731	270.599138	932.284339	-411.663128	317.070801	838.611441	-420.137044	391.518082	774.482122	-400.555285	411.487616	765.378467	-302.598299	352.857737	412.959553	-410.012831	368.038332	423.922748	-339.028439	284.384290	372.674876	-374.724322	454.808521	335.970441	-433.908278	378.162064	675.973213	-423.754523	393.413741	590.529678	-415.914974	362.701002	507.188951	-414.869115	419.106752	590.596874	-385.617457	544.090580	356.325857	-363.671923	-65.249630	853.022040	-240.116141	21.308151	83.790573	-441.762264	21.389903	83.914070	-43.555159	
251	1.2550	479.993667	1303.183874	-92.416016	503.437681	1287.857420	-410.668459	455.383721	1327.261367	-253.264438	465.376839	1190.121129	-247.845741	513.998099	1060.406304	-5.503892	691.523610	876.117267	-53.644156	488.108592	1024.441812	-516.910125	683.322679	876.652042	-449.508173	-21.481087	1148.135189	-239.967703	120.010339	1113.885233	-382.960518	133.010268	1122.473364	-101.173846	139.175422	1045.419880	-364.226032	157.957693	1056.996975	-114.668690	18.834085	1174.439521	-183.789345	15.047155	1177.183300	-294.105255	76.472630	989.920583	-43.702304	60.077081	1003.898334	-433.183151	167.865333	884.319666	-50.230066	240.256912	836.331933	-58.404688	276.584004	755.622739	-65.393645	264.620035	856.406181	-76.551116	321.876911	666.610224	-100.395578	302.727661	654.454468	-196.145785	241.839735	601.152842	-70.150004	200.625159	522.340611	-84.427046	126.023045	475.874658	-83.756094	219.981883	509.299517	-116.732290	56.333694	404.376256	-84.365390	61.115821	414.565467	-164.276060	-33.141201	397.175599	-124.131104	213.184225	301.892009	-124.110664	129.588451	313.858735	-60.091047	169.624678	921.710882	-428.918061	251.977843	901.503219	-423.121313	270.582979	932.423839	-411.706909	317.109664	838.724879	-420.150320	391.553233	774.638078	-400.580033	411.536652	765.477478	-302.592249	352.876423	413.058927	-409.992958	368.038331	424.054951	-339.027694	284.402631	372.810222	-374.724510	454.808056	336.062129	-433.901839	378.188722	676.082740	-423.770215	393.406146	590.647765	-415.861566	362.731684	507.317986	-414.881546	419.098383	590.832674	-385.668227	544.120847	356.425821	-363.723787	-65.238225	853.006524	-240.122797	21.318537	83.791844	-441.763934	21.394179	83.927147	-43.551023	
252	1.2600	479.985963	1303.149045	-92.373818	503.414890	1287.821520	-410.674332	455.349116	1327.263684	-253.265867	465.357714	1190.089984	-247.854320	513.972118	1060.382334	-5.464677	691.520241	876.105814	-53.633509	488.087625	1024.420208	-516.908944	683.328847	876.647642	-449.510690	-21.504977	1148.129151	-239.934635	119.993135	1113.901647	-382.931943	132.966825	1122.469669	-101.128482	139.128189	1045.420409	-364.205545	157.949509	1056.961520	-114.634570	18.829282	1174.443456	-183.774740	15.004812	1177.191096	-294.052214	76.436889	989.923536	-43.690580	60.047662	1003.948833	-433.171655	167.842192	884.325513	-50.236205	240.255852	836.358959	-58.441475	276.584963	755.649693	-65.405592	264.587283	856.426887	-76.574271	321.879122	666.597201	-100.437939	302.688640	654.443220	-196.185004	241.820628	601.136890	-70.161261	200.658828	522.289569	-84.435401	126.044184	475.827498	-83.761189	220.001650	509.288091	-116.738663	56.361452	404.325302	-84.360102	61.073130	414.499449	-164.264911	-33.101853	397.112315	-124.126283	213.180020	301.773254	-124.116246	129.618702	313.750596	-60.098563	169.633023	921.807319	-428.917725	251.970897	901.621819	-423.147435	270.548843	932.562303	-411.719458	317.118688	838.867237	-420.199574	391.583640	774.749690	-400.591178	411.587574	765.600118	-302.582002	352.895630	413.173805	-410.003481	368.072384	424.162716	-339.024119	284.538838	373.125155	-374.789903	454.807050	336.149590	-433.902959	378.221170	676.183311	-423.777949	393.429617	590.817264	-415.951417	362.728587	507.418602	-414.896641	419.131618	590.954742	-385.669746	544.117724	356.488522	-363.714790	-65.235163	853.018315	-240.117430	21.316076	83.794792	-441.762295	21.397161	83.933260	-43.538741	
253	1.2650	479.970923	1303.145796	-92.350245	503.407402	1287.786508	-410.663314	455.314602	1327.224497	-253.266772	465.339050	1190.071340	-247.837503	513.975124	1060.365940	-5.421624	691.520185	876.100373	-53.637984	488.075800	1024.408273	-516.894651	683.323103	876.642587	-449.505163	-21.504574	1148.124547	-239.917474	119.964746	1113.919879	-382.909976	132.965109	1122.459636	-101.078926	139.104279	1045.432795	-364.176847	157.944199	1056.973081	-114.591248	18.809217	1174.445607	-183.736527	14.959375	1177.218156	-294.010690	76.406770	989.921928	-43.670352	60.026952	1004.003120	-433.158143	167.828289	884.330429	-50.219689	240.234767	836.355781	-58.443806	276.576838	755.672414	-65.428152	264.571714	856.430440	-76.598495	321.855116	666.580032	-100.477519	302.647463	654.432192	-196.206098	241.836412	601.115762	-70.196740	200.640405	522.284180	-84.444183	126.053261	475.777699	-83.774004	220.013595	509.262919	-116.736151	56.383407	404.230255	-84.382908	61.033445	414.430175	-164.249282	-33.086639	397.054183	-124.124054	213.175883	301.673803	-124.128664	129.623949	313.642661	-60.095642	169.632149	921.903031	-428.913216	251.975779	901.718438	-423.147194	270.551165	932.682416	-411.721891	317.148708	838.977853	-420.220026	391.604567	774.872266	-400.612854	411.625181	765.713993	-302.590733	352.911891	413.289474	-409.999635	368.083621	424.247791	-339.058974	284.552254	373.235986	-374.779306	454.792657	336.275055	-433.914576	378.241750	676.287538	-423.788571	393.448677	590.883818	-415.938589	362.756325	507.530942	-414.894516	419.144288	591.070636	-385.675395	544.130241	356.540118	-363.719457	-65.239905	853.031875	-240.143082	21.310055	83.794959	-441.762515	21.396291	83.926772	-43.551611	
254	1.2700	479.964685	1303.125492	-92.309409	503.403612	1287.773515	-410.628777	455.306591	1327.235081	-253.223695	465.337776	1190.069610	-247.786796	513.959205	1060.360543	-5.373686	691.523835	876.105888	-53.626875	488.072806	1024.392833	-516.863068	683.330562	876.649705	-449.516796	-21.526152	1148.166799	-239.786859	119.953564	1113.943871	-382.876496	132.937964	1122.468360	-101.050430	139.070838	1045.449686	-364.153997	157.917120	1056.981092	-114.552879	18.771367	1174.462636	-183.705442	14.972412	1177.206080	-294.006227	76.371342	989.927567	-43.658495	60.004873	1004.059918	-433.140152	167.810399	884.335658	-50.198772	240.212872	836.363318	-58.459798	276.563445	755.678754	-65.432093	264.538806	856.441998	-76.617862	321.821370	666.578743	-100.512212	302.612591	654.403308	-196.244224	241.796010	601.086736	-70.214295	200.632669	522.261812	-84.458674	126.067662	475.716215	-83.784716	220.008869	509.237309	-116.754133	56.403778	404.172605	-84.369031	60.936796	414.325123	-164.223846	-33.074296	396.976922	-124.104127	213.201542	301.611801	-124.108632	129.666263	313.547168	-60.097350	169.631736	921.991317	-428.898133	252.003250	901.833692	-423.137232	270.540670	932.802770	-411.725438	317.167799	839.099038	-420.266359	391.657287	774.980511	-400.628455	411.685582	765.821096	-302.597688	352.924409	413.390752	-410.004797	368.104064	424.367880	-339.027117	284.561634	373.348450	-374.760446	454.813092	336.362175	-433.902887	378.267742	676.416525	-423.809155	393.474779	591.032115	-415.947798	362.771035	507.634579	-414.895072	419.163319	591.175520	-385.693223	544.130130	356.610533	-363.729668	-65.244323	853.012654	-240.171125	21.317985	83.783692	-441.758151	21.379181	83.918623	-43.552025	
255	1.2750	479.956980	1303.090541	-92.267165	503.393065	1287.769520	-410.611935	455.241810	1327.236345	-253.201763	465.316297	1190.072587	-247.762807	513.962099	1060.339612	-5.340512	691.361509	876.252259	-53.652942	488.069702	1024.373343	-516.842647	683.328766	876.644688	-449.492282	-21.555323	1148.127855	-239.727074	119.939713	1113.943662	-382.858719	132.893722	1122.480940	-100.985583	139.047281	1045.469270	-364.127480	157.896406	1056.996085	-114.502103	18.777812	1174.454356	-183.695302	14.905467	1177.225017	-293.936572	76.366526	989.901552	-43.634988	59.987465	1004.108038	-433.128242	167.822323	884.350678	-50.103872	240.201270	836.351430	-58.483510	276.534522	755.679534	-65.438541	264.523876	856.422240	-76.639613	321.792774	666.537612	-100.539459	302.562864	654.361956	-196.259896	241.766573	601.044021	-70.240060	200.611547	522.213879	-84.469007	126.066053	475.601939	-83.778296	220.005168	509.192283	-116.760579	56.368786	404.044711	-84.412309	60.908729	414.220459	-164.217716	-33.063143	396.868575	-124.124087	213.207147	301.527991	-124.112755	129.672304	313.427116	-60.095636	169.625855	922.114591	-428.906685	252.024829	901.935370	-423.140829	270.556659	932.914221	-411.694148	317.198394	839.216255	-420.282276	391.679255	775.083856	-400.652990	411.767496	765.980079	-302.573564	352.925322	413.499581	-410.002998	368.073023	424.473636	-339.051194	284.578430	373.446999	-374.771610	454.815378	336.452146	-433.900256	378.294897	676.554723	-423.833022	393.490503	591.147705	-415.983961	362.766019	507.784321	-414.913869	419.182044	591.313368	-385.739223	544.121687	356.703801	-363.710849	-65.229541	853.018426	-240.153390	21.325789	83.785252	-441.752164	21.382490	83.928187	-43.549996	
